HIERARCHY
ROOT joint_Root
{
	OFFSET 0.0 0.0 0.0
	CHANNELS 6 Xposition Yposition Zposition Zrotation Xrotation Yrotation 
	JOINT Hips
	{
		OFFSET -17.1583 93.1646 452.98
		CHANNELS 6 Xposition Yposition Zposition Zrotation Xrotation Yrotation 
		JOINT Spine
		{
			OFFSET 15.7357 0.0 0.0
			CHANNELS 6 Xposition Yposition Zposition Zrotation Xrotation Yrotation 
			JOINT Chest
			{
				OFFSET 8.98455 -0.406207 0.0
				CHANNELS 6 Xposition Yposition Zposition Zrotation Xrotation Yrotation 
				JOINT Neck
				{
					OFFSET 16.3773 0.0 0.0
					CHANNELS 6 Xposition Yposition Zposition Zrotation Xrotation Yrotation 
					JOINT Head
					{
						OFFSET 6.45672 0.0 0.0
						CHANNELS 6 Xposition Yposition Zposition Zrotation Xrotation Yrotation 
						End Site
						{
							OFFSET 0.0 0.0 0.0
						}
					}
				}
				JOINT Shoulder_L
				{
					OFFSET 12.9942 -0.242716 4.98039
					CHANNELS 6 Xposition Yposition Zposition Zrotation Xrotation Yrotation 
					JOINT UpperArm_L
					{
						OFFSET 5.34809 0.0 0.0
						CHANNELS 6 Xposition Yposition Zposition Zrotation Xrotation Yrotation 
						JOINT LowerArm_L
						{
							OFFSET 24.3286 1.87007e-05 0.0
							CHANNELS 6 Xposition Yposition Zposition Zrotation Xrotation Yrotation 
							JOINT Hand_L
							{
								OFFSET 22.2916 0.0 0.0
								CHANNELS 6 Xposition Yposition Zposition Zrotation Xrotation Yrotation 
								End Site
								{
									OFFSET 0.0 0.0 0.0
								}
							}
						}
					}
				}
				JOINT Shoulder_R
				{
					OFFSET 12.9945 -0.242716 -4.98039
					CHANNELS 6 Xposition Yposition Zposition Zrotation Xrotation Yrotation 
					JOINT UpperArm_R
					{
						OFFSET -5.34813 0.0 0.0
						CHANNELS 6 Xposition Yposition Zposition Zrotation Xrotation Yrotation 
						JOINT LowerArm_R
						{
							OFFSET -24.3289 0.000322201 0.0
							CHANNELS 6 Xposition Yposition Zposition Zrotation Xrotation Yrotation 
							JOINT Hand_R
							{
								OFFSET -22.2915 -0.000108084 0.0
								CHANNELS 6 Xposition Yposition Zposition Zrotation Xrotation Yrotation 
								End Site
								{
									OFFSET 0.0 0.0 0.0
								}
							}
						}
					}
				}
			}
		}
		JOINT UpperLeg_L
		{
			OFFSET -2.19248 -6.46944 0.0
			CHANNELS 6 Xposition Yposition Zposition Zrotation Xrotation Yrotation 
			JOINT LowerLeg_L
			{
				OFFSET 39.0811 0.0 -1.23785e-05
				CHANNELS 6 Xposition Yposition Zposition Zrotation Xrotation Yrotation 
				JOINT Foot_L
				{
					OFFSET 40.9854 0.0 -1.26872e-05
					CHANNELS 6 Xposition Yposition Zposition Zrotation Xrotation Yrotation 
					JOINT Toes_L
					{
						OFFSET 11.7543 0.0 0.0
						CHANNELS 6 Xposition Yposition Zposition Zrotation Xrotation Yrotation 
						End Site
						{
							OFFSET 0.0 0.0 0.0
						}
					}
				}
			}
		}
		JOINT UpperLeg_R
		{
			OFFSET -2.19251 6.46944 0.0
			CHANNELS 6 Xposition Yposition Zposition Zrotation Xrotation Yrotation 
			JOINT LowerLeg_R
			{
				OFFSET -39.0811 -0.00228153 -0.0401928
				CHANNELS 6 Xposition Yposition Zposition Zrotation Xrotation Yrotation 
				JOINT Foot_R
				{
					OFFSET -40.9854 0.0 0.0
					CHANNELS 6 Xposition Yposition Zposition Zrotation Xrotation Yrotation 
					JOINT Toes_R
					{
						OFFSET -11.7543 0.0 0.0
						CHANNELS 6 Xposition Yposition Zposition Zrotation Xrotation Yrotation 
						End Site
						{
							OFFSET 0.0 0.0 0.0
						}
					}
				}
			}
		}
	}
}
MOTION
Frames:	6
Frame Time:	0.0333333
0.000000 0.000000 0.000000 0.000000 0.000000 -0.000000 -0.363982 91.242400 9.150110 88.450900 -0.779787 5.540440 15.735700 0.000005 -0.000001 -106.305000 89.398100 107.138000 8.984550 -0.406207 -0.000000 -8.922530 0.215708 1.686770 16.377300 -0.000001 -0.000001 -4.497730 -0.150089 -0.467732 6.456720 -0.000001 -0.000000 0.228462 0.710303 -1.054550 12.994200 -0.242716 4.980390 -88.487800 -2.996640 -63.206500 5.348090 -0.000007 -0.000001 -72.023800 -57.964500 -113.859000 24.328600 0.000019 0.000005 0.000044 -13.488400 0.000001 22.291600 -0.000001 0.000005 37.351900 4.423270 17.850800 12.994500 -0.242716 -4.980390 93.435200 -6.749730 -62.945200 -5.348130 -0.000001 -0.000004 -69.081100 -58.044500 -115.533000 -24.328900 0.000322 -0.000009 -0.001094 -31.831600 -0.000185 -22.291500 -0.000108 -0.000004 40.213000 5.452860 -4.742200 -2.192480 -6.469440 -0.000000 -172.917000 -6.897790 9.642120 39.081100 -0.000007 -0.000012 0.053785 -0.169005 17.653400 40.985400 -0.000006 -0.000013 0.461910 12.381200 -75.037500 11.754300 -0.000000 0.000003 -0.002848 0.206506 -8.197550 -2.192510 6.469440 -0.000001 175.281000 4.501330 -169.674000 -39.081100 -0.002282 -0.040193 0.000105 0.011469 15.701500 -40.985400 0.000008 0.000006 -6.955270 6.771900 -74.753900 -11.754300 -0.000006 -0.000006 -0.013358 0.294885 -4.585430
0.000000 0.000000 0.000000 0.000000 0.000000 -0.000000 -0.370284 91.274100 9.063370 88.464300 -0.699995 5.454230 15.735700 0.000005 -0.000001 -105.080000 89.399600 105.926000 8.984550 -0.406207 -0.000000 -8.926400 0.188248 1.711370 16.377300 -0.000001 -0.000001 -4.379480 -0.141750 -0.468958 6.456720 -0.000001 -0.000000 0.199089 0.731018 -1.051210 12.994200 -0.242716 4.980390 -88.497800 -2.972570 -63.173800 5.348090 -0.000007 -0.000001 -71.910300 -57.823800 -113.821000 24.328600 0.000019 0.000005 0.000044 -13.585300 0.000001 22.291600 -0.000001 0.000005 37.350400 4.428850 17.760900 12.994500 -0.242716 -4.980390 93.418900 -6.706620 -62.907600 -5.348130 -0.000001 -0.000004 -69.234100 -57.886600 -115.735000 -24.328900 0.000322 -0.000009 -0.001096 -31.772400 -0.000185 -22.291500 -0.000108 -0.000004 40.246800 5.457280 -4.902120 -2.192480 -6.469440 -0.000000 -172.943000 -6.866610 9.517800 39.081100 -0.000007 -0.000012 0.052594 -0.166117 17.568300 40.985400 -0.000006 -0.000013 0.443623 12.405400 -74.954900 11.754300 -0.000000 0.000003 -0.002905 0.207158 -8.171010 -2.192510 6.469440 -0.000001 175.290000 4.514150 -169.766000 -39.081100 -0.002282 -0.040193 -0.001452 0.017132 15.593700 -40.985400 0.000008 0.000006 -7.046690 6.702910 -74.603400 -11.754300 -0.000006 -0.000006 -0.012953 0.292182 -4.696210
0.000000 0.000000 0.000000 0.000000 0.000000 -0.000000 -0.380794 91.293000 9.004240 88.476000 -0.615756 5.377610 15.735700 0.000005 -0.000001 -104.360000 89.404700 105.213000 8.984550 -0.406207 -0.000000 -8.920180 0.170141 1.724810 16.377300 -0.000001 -0.000001 -4.311310 -0.155088 -0.468411 6.456720 -0.000001 -0.000000 0.216170 0.732362 -1.005320 12.994200 -0.242716 4.980390 -88.492500 -2.981940 -63.165100 5.348090 -0.000007 -0.000001 -72.057200 -57.683700 -113.932000 24.328600 0.000019 0.000005 0.000049 -13.704300 0.000001 22.291600 -0.000001 0.000005 37.254400 4.436360 17.639700 12.994500 -0.242716 -4.980390 93.409600 -6.682430 -62.887500 -5.348130 -0.000001 -0.000004 -69.266500 -57.864700 -115.819000 -24.328900 0.000322 -0.000009 -0.001095 -31.784300 -0.000185 -22.291500 -0.000108 -0.000004 40.018000 5.454810 -4.812450 -2.192480 -6.469440 -0.000000 -172.933000 -6.905990 9.407070 39.081100 -0.000007 -0.000012 0.051500 -0.163134 17.520700 40.985400 -0.000006 -0.000013 0.443796 12.525000 -74.874300 11.754300 -0.000000 0.000003 -0.002691 0.204686 -8.271590 -2.192510 6.469440 -0.000001 175.299000 4.579890 -169.841000 -39.081100 -0.002282 -0.040193 -0.001217 0.016356 15.532400 -40.985400 0.000008 0.000006 -7.024040 6.657640 -74.544900 -11.754300 -0.000006 -0.000006 -0.012811 0.291227 -4.735360
0.000000 0.000000 0.000000 0.000000 0.000000 -0.000000 -0.387309 91.305700 8.966890 88.508200 -0.558167 5.377540 15.735700 0.000005 -0.000001 -104.752000 89.425400 105.607000 8.984550 -0.406207 -0.000000 -8.878080 0.167594 1.727680 16.377300 -0.000001 -0.000001 -4.226720 -0.168857 -0.416784 6.456720 -0.000001 -0.000000 0.213239 0.733729 -1.000790 12.994200 -0.242716 4.980390 -88.504000 -2.960540 -63.176900 5.348090 -0.000007 -0.000001 -72.350800 -57.537100 -114.187000 24.328600 0.000019 0.000005 0.000045 -13.987300 0.000001 22.291600 -0.000001 0.000005 37.052100 4.452750 17.374200 12.994500 -0.242716 -4.980390 93.415400 -6.686630 -62.862800 -5.348130 -0.000001 -0.000004 -69.278300 -57.832600 -115.867000 -24.328900 0.000322 -0.000009 -0.001095 -31.834300 -0.000185 -22.291500 -0.000108 -0.000004 40.018300 5.457620 -4.914590 -2.192480 -6.469440 -0.000000 -172.957000 -6.910260 9.396350 39.081100 -0.000007 -0.000012 0.051483 -0.163630 17.465200 40.985400 -0.000006 -0.000013 0.440549 12.572200 -74.811500 11.754300 -0.000000 0.000003 -0.002782 0.205738 -8.228800 -2.192510 6.469440 -0.000001 175.279000 4.618370 -169.851000 -39.081100 -0.002282 -0.040193 -0.000407 0.013462 15.511100 -40.985400 0.000008 0.000006 -6.970670 6.640240 -74.514600 -11.754300 -0.000006 -0.000006 -0.013083 0.293055 -4.660440
0.000000 0.000000 0.000000 0.000000 0.000000 -0.000000 -0.408430 91.322500 8.941180 88.502200 -0.479584 5.301910 15.735700 0.000005 -0.000001 -103.535000 89.419200 104.402000 8.984550 -0.406207 -0.000000 -8.895900 0.145060 1.749550 16.377300 -0.000001 -0.000001 -4.141700 -0.188755 -0.387771 6.456720 -0.000001 -0.000000 0.204340 0.748521 -1.029600 12.994200 -0.242716 4.980390 -88.524400 -2.918360 -63.162200 5.348090 -0.000007 -0.000001 -72.207400 -57.477100 -114.145000 24.328600 0.000019 0.000005 0.000042 -14.167800 0.000001 22.291600 -0.000001 0.000005 36.655600 4.468060 17.124900 12.994500 -0.242716 -4.980390 93.410400 -6.655130 -62.787600 -5.348130 -0.000001 -0.000004 -69.468900 -57.697300 -116.110000 -24.328900 0.000322 -0.000009 -0.001096 -31.882700 -0.000185 -22.291500 -0.000108 -0.000004 40.144800 5.455800 -4.848340 -2.192480 -6.469440 -0.000000 -172.989000 -6.736770 9.319850 39.081100 -0.000007 -0.000012 0.050871 -0.162429 17.390000 40.985400 -0.000006 -0.000013 0.397554 12.474000 -74.777700 11.754300 -0.000000 0.000003 -0.002829 0.206284 -8.206570 -2.192510 6.469440 -0.000001 175.305000 4.667830 -169.898000 -39.081100 -0.002282 -0.040193 -0.001649 0.018042 15.427100 -40.985400 0.000008 0.000006 -7.064730 6.594410 -74.445700 -11.754300 -0.000006 -0.000006 -0.013052 0.292848 -4.668930
0.000000 0.000000 0.000000 0.000000 0.000000 -0.000000 -0.422001 91.326800 8.938420 88.489500 -0.430370 5.303930 15.735700 0.000005 -0.000001 -103.049000 89.433000 103.939000 8.984550 -0.406207 -0.000000 -8.871080 0.126061 1.795070 16.377300 -0.000001 -0.000001 -4.058700 -0.191537 -0.364718 6.456720 -0.000001 -0.000000 0.130759 0.765600 -1.116850 12.994200 -0.242716 4.980390 -88.530200 -2.906580 -63.160600 5.348090 -0.000007 -0.000001 -72.234400 -57.398000 -114.126000 24.328600 0.000019 0.000005 0.000046 -14.109800 0.000001 22.291600 -0.000001 0.000005 36.677700 4.467650 17.131600 12.994500 -0.242716 -4.980390 93.406600 -6.635660 -62.745000 -5.348130 -0.000001 -0.000004 -69.519300 -57.637000 -116.226000 -24.328900 0.000322 -0.000009 -0.001096 -32.030800 -0.000186 -22.291500 -0.000108 -0.000004 40.073300 5.455930 -4.852980 -2.192480 -6.469440 -0.000000 -172.977000 -6.708090 9.323070 39.081100 -0.000007 -0.000012 0.052523 -0.167837 17.377000 40.985400 -0.000006 -0.000013 0.389157 12.469700 -74.794000 11.754300 -0.000000 0.000003 -0.002842 0.206434 -8.200480 -2.192510 6.469440 -0.000001 175.338000 4.670550 -169.870000 -39.081100 -0.002282 -0.040193 -0.002404 0.020837 15.383900 -40.985400 0.000008 0.000006 -7.113980 6.550410 -74.416500 -11.754300 -0.000006 -0.000006 -0.012930 0.292031 -4.702420
